<svg width="50" height="50" viewBox="0 0 50 50" fill="none" xmlns="http://www.w3.org/2000/svg">
<g clip-path="url(#clip0_32_61)">
<mask id="mask0_32_61" style="mask-type:luminance" maskUnits="userSpaceOnUse" x="0" y="0" width="50" height="50">
<path d="M49.2674 49.2676V0.732567H0.732422V49.2676H49.2674Z" fill="white" stroke="white" stroke-width="1.46484"/>
</mask>
<g mask="url(#mask0_32_61)">
<path d="M45.4011 46.4844H4.59872C2.86787 46.4844 1.46484 45.0814 1.46484 43.3505V10.5767C1.46484 8.84591 2.86787 7.44289 4.59872 7.44289H45.4011C47.132 7.44289 48.535 8.84591 48.535 10.5767V43.3505C48.535 45.0814 47.132 46.4844 45.4011 46.4844Z" stroke="black" stroke-width="1.46484" stroke-miterlimit="10"/>
<path d="M1.46484 16.1983H48.535" stroke="black" stroke-width="1.46484" stroke-miterlimit="10"/>
<path d="M25.0186 10.9189V3.55266" stroke="black" stroke-width="1.46484" stroke-miterlimit="10" stroke-linecap="round"/>
<path d="M8.12207 10.882V3.51577" stroke="black" stroke-width="1.46484" stroke-miterlimit="10" stroke-linecap="round"/>
<path d="M16.5703 10.882V3.51577" stroke="black" stroke-width="1.46484" stroke-miterlimit="10" stroke-linecap="round"/>
<path d="M42.249 10.882V3.51577" stroke="black" stroke-width="1.46484" stroke-miterlimit="10" stroke-linecap="round"/>
<path d="M33.6338 10.9189V3.55266" stroke="black" stroke-width="1.46484" stroke-miterlimit="10" stroke-linecap="round"/>
<path d="M27.703 28.6134H22.3339C22.2564 28.6134 22.1797 28.5982 22.1081 28.5685C22.0365 28.5389 21.9715 28.4954 21.9167 28.4406C21.8619 28.3858 21.8184 28.3207 21.7888 28.2491C21.7591 28.1775 21.7439 28.1008 21.7439 28.0233V22.6544C21.7439 22.5769 21.7592 22.5002 21.7888 22.4286C21.8185 22.357 21.8619 22.2919 21.9167 22.2371C21.9715 22.1824 22.0365 22.1389 22.1081 22.1092C22.1797 22.0796 22.2564 22.0643 22.3339 22.0643H27.703C27.8594 22.0643 28.0095 22.1265 28.1202 22.2371C28.2308 22.3478 28.293 22.4979 28.293 22.6544V28.0233C28.293 28.1008 28.2778 28.1775 28.2481 28.2491C28.2185 28.3207 28.175 28.3858 28.1202 28.4406C28.0654 28.4954 28.0004 28.5389 27.9288 28.5685C27.8572 28.5982 27.7805 28.6134 27.703 28.6134Z" stroke="black" stroke-width="1.46484" stroke-miterlimit="10"/>
<path d="M27.703 41.0157H22.3339C22.2564 41.0157 22.1797 41.0005 22.1081 40.9708C22.0365 40.9412 21.9715 40.8977 21.9167 40.8429C21.8619 40.7881 21.8184 40.723 21.7888 40.6514C21.7591 40.5798 21.7439 40.5031 21.7439 40.4256V35.0567C21.7439 34.9792 21.7592 34.9025 21.7888 34.8309C21.8185 34.7593 21.8619 34.6943 21.9167 34.6395C21.9715 34.5847 22.0365 34.5412 22.1081 34.5116C22.1797 34.4819 22.2564 34.4666 22.3339 34.4666H27.703C27.8594 34.4666 28.0095 34.5288 28.1202 34.6395C28.2308 34.7501 28.293 34.9002 28.293 35.0567V40.4256C28.293 40.5031 28.2778 40.5798 28.2481 40.6514C28.2185 40.723 28.175 40.7881 28.1202 40.8429C28.0654 40.8977 28.0004 40.9412 27.9288 40.9708C27.8572 41.0005 27.7805 41.0157 27.703 41.0157Z" stroke="black" stroke-width="1.46484" stroke-miterlimit="10"/>
<path d="M14.0811 28.6134H8.71211C8.63461 28.6134 8.55788 28.5982 8.48629 28.5685C8.41469 28.5389 8.34964 28.4954 8.29485 28.4406C8.24006 28.3858 8.1966 28.3207 8.16696 28.2491C8.13731 28.1775 8.12206 28.1008 8.12207 28.0233V22.6544C8.12207 22.5769 8.13733 22.5002 8.16698 22.4286C8.19664 22.357 8.2401 22.2919 8.29489 22.2371C8.34968 22.1824 8.41472 22.1389 8.48631 22.1092C8.5579 22.0796 8.63462 22.0643 8.71211 22.0643H14.0811C14.2376 22.0643 14.3877 22.1265 14.4984 22.2371C14.609 22.3478 14.6712 22.4979 14.6712 22.6544V28.0233C14.6712 28.1008 14.6559 28.1775 14.6263 28.2491C14.5966 28.3207 14.5532 28.3858 14.4984 28.4406C14.4436 28.4954 14.3785 28.5389 14.307 28.5685C14.2354 28.5982 14.1586 28.6134 14.0811 28.6134Z" stroke="black" stroke-width="1.46484" stroke-miterlimit="10"/>
<path d="M14.0811 41.0157H8.71211C8.63461 41.0157 8.55788 41.0005 8.48629 40.9708C8.41469 40.9412 8.34964 40.8977 8.29485 40.8429C8.24006 40.7881 8.1966 40.723 8.16696 40.6514C8.13731 40.5798 8.12206 40.5031 8.12207 40.4256V35.0567C8.12207 34.9792 8.13733 34.9025 8.16698 34.8309C8.19664 34.7593 8.2401 34.6943 8.29489 34.6395C8.34968 34.5847 8.41472 34.5412 8.48631 34.5116C8.5579 34.4819 8.63462 34.4666 8.71211 34.4666H14.0811C14.2376 34.4666 14.3877 34.5288 14.4984 34.6395C14.609 34.7501 14.6712 34.9002 14.6712 35.0567V40.4256C14.6712 40.5031 14.6559 40.5798 14.6263 40.6514C14.5966 40.723 14.5532 40.7881 14.4984 40.8429C14.4436 40.8977 14.3785 40.9412 14.307 40.9708C14.2354 41.0005 14.1586 41.0157 14.0811 41.0157Z" stroke="black" stroke-width="1.46484" stroke-miterlimit="10"/>
<path d="M41.6588 28.6134H36.2897C36.1332 28.6134 35.9832 28.5512 35.8725 28.4406C35.7619 28.3299 35.6997 28.1798 35.6997 28.0233V22.6544C35.6997 22.4979 35.7619 22.3478 35.8726 22.2372C35.9832 22.1265 36.1333 22.0644 36.2897 22.0643H41.6588C41.7363 22.0643 41.813 22.0796 41.8846 22.1092C41.9562 22.1389 42.0213 22.1823 42.0761 22.2371C42.1309 22.2919 42.1743 22.357 42.204 22.4285C42.2336 22.5001 42.2489 22.5769 42.2489 22.6544V28.0233C42.2489 28.1008 42.2337 28.1775 42.204 28.2491C42.1744 28.3208 42.1309 28.3858 42.0761 28.4406C42.0213 28.4954 41.9562 28.5389 41.8846 28.5685C41.813 28.5982 41.7363 28.6134 41.6588 28.6134Z" stroke="black" stroke-width="1.46484" stroke-miterlimit="10"/>
<path d="M36.124 37.9219L37.4076 39.2054C37.4886 39.2864 37.5847 39.3506 37.6906 39.3945C37.7964 39.4383 37.9098 39.4609 38.0243 39.4609C38.1388 39.4609 38.2523 39.4383 38.3581 39.3945C38.4639 39.3506 38.56 39.2864 38.641 39.2054L41.8249 36.0216" stroke="black" stroke-width="1.46484" stroke-miterlimit="10" stroke-linecap="round"/>
</g>
</g>
<defs>
<clipPath id="clip0_32_61">
<rect width="50" height="50" fill="white"/>
</clipPath>
</defs>
</svg>
