<svg width="50" height="50" viewBox="0 0 50 50" fill="none" xmlns="http://www.w3.org/2000/svg">
<g clip-path="url(#clip0_32_81)">
<mask id="mask0_32_81" style="mask-type:luminance" maskUnits="userSpaceOnUse" x="0" y="0" width="50" height="50">
<path d="M49.2674 49.2676V0.732567H0.732422V49.2676H49.2674Z" fill="white" stroke="white" stroke-width="1.46484"/>
</mask>
<g mask="url(#mask0_32_81)">
<path d="M45.4011 46.4844H4.59872C2.86787 46.4844 1.46484 45.0814 1.46484 43.3505V10.5767C1.46484 8.84591 2.86787 7.44289 4.59872 7.44289H45.4011C47.132 7.44289 48.535 8.84591 48.535 10.5767V43.3505C48.535 45.0814 47.132 46.4844 45.4011 46.4844Z" stroke="black" stroke-width="1.46484" stroke-miterlimit="10"/>
<path d="M1.46484 16.1983H48.535" stroke="black" stroke-width="1.46484" stroke-miterlimit="10"/>
<path d="M25.0186 10.9189V3.55266" stroke="black" stroke-width="1.46484" stroke-miterlimit="10" stroke-linecap="round"/>
<path d="M8.12207 10.882V3.51577" stroke="black" stroke-width="1.46484" stroke-miterlimit="10" stroke-linecap="round"/>
<path d="M16.5703 10.882V3.51577" stroke="black" stroke-width="1.46484" stroke-miterlimit="10" stroke-linecap="round"/>
<path d="M42.249 10.882V3.51577" stroke="black" stroke-width="1.46484" stroke-miterlimit="10" stroke-linecap="round"/>
<path d="M33.6338 10.9189V3.55266" stroke="black" stroke-width="1.46484" stroke-miterlimit="10" stroke-linecap="round"/>
<path d="M27.703 28.6134H22.3339C22.2564 28.6134 22.1797 28.5982 22.1081 28.5685C22.0365 28.5389 21.9715 28.4954 21.9167 28.4406C21.8619 28.3858 21.8184 28.3207 21.7888 28.2491C21.7591 28.1775 21.7439 28.1008 21.7439 28.0233V22.6544C21.7439 22.5769 21.7592 22.5002 21.7888 22.4286C21.8185 22.357 21.8619 22.2919 21.9167 22.2371C21.9715 22.1824 22.0365 22.1389 22.1081 22.1092C22.1797 22.0796 22.2564 22.0643 22.3339 22.0643H27.703C27.8594 22.0643 28.0095 22.1265 28.1202 22.2371C28.2308 22.3478 28.293 22.4979 28.293 22.6544V28.0233C28.293 28.1008 28.2778 28.1775 28.2481 28.2491C28.2185 28.3207 28.175 28.3858 28.1202 28.4406C28.0654 28.4954 28.0004 28.5389 27.9288 28.5685C27.8572 28.5982 27.7805 28.6134 27.703 28.6134Z" stroke="black" stroke-width="1.46484" stroke-miterlimit="10"/>
<path d="M27.703 41.0157H22.3339C22.2564 41.0157 22.1797 41.0005 22.1081 40.9708C22.0365 40.9412 21.9715 40.8977 21.9167 40.8429C21.8619 40.7881 21.8184 40.723 21.7888 40.6514C21.7591 40.5798 21.7439 40.5031 21.7439 40.4256V35.0567C21.7439 34.9792 21.7592 34.9025 21.7888 34.8309C21.8185 34.7593 21.8619 34.6943 21.9167 34.6395C21.9715 34.5847 22.0365 34.5412 22.1081 34.5116C22.1797 34.4819 22.2564 34.4666 22.3339 34.4666H27.703C27.8594 34.4666 28.0095 34.5288 28.1202 34.6395C28.2308 34.7501 28.293 34.9002 28.293 35.0567V40.4256C28.293 40.5031 28.2778 40.5798 28.2481 40.6514C28.2185 40.723 28.175 40.7881 28.1202 40.8429C28.0654 40.8977 28.0004 40.9412 27.9288 40.9708C27.8572 41.0005 27.7805 41.0157 27.703 41.0157Z" stroke="black" stroke-width="1.46484" stroke-miterlimit="10"/>
<path d="M41.659 41.02H36.29C36.2125 41.02 36.1358 41.0047 36.0642 40.9751C35.9926 40.9454 35.9275 40.9019 35.8727 40.8471C35.8179 40.7923 35.7745 40.7273 35.7448 40.6557C35.7152 40.5841 35.6999 40.5073 35.7 40.4299V35.0609C35.7 34.9834 35.7152 34.9067 35.7449 34.8351C35.7745 34.7635 35.818 34.6985 35.8728 34.6437C35.9276 34.5889 35.9926 34.5455 36.0642 34.5158C36.1358 34.4861 36.2125 34.4709 36.29 34.4709H41.659C41.8155 34.4709 41.9656 34.5331 42.0762 34.6437C42.1869 34.7544 42.2491 34.9044 42.2491 35.0609V40.4299C42.2491 40.5073 42.2338 40.5841 42.2042 40.6557C42.1745 40.7273 42.1311 40.7923 42.0763 40.8471C42.0215 40.9019 41.9564 40.9454 41.8848 40.9751C41.8132 41.0047 41.7365 41.02 41.659 41.02Z" stroke="black" stroke-width="1.46484" stroke-miterlimit="10"/>
<path d="M14.0811 41.0157H8.71211C8.63461 41.0157 8.55788 41.0005 8.48629 40.9708C8.41469 40.9412 8.34964 40.8977 8.29485 40.8429C8.24006 40.7881 8.1966 40.723 8.16696 40.6514C8.13731 40.5798 8.12206 40.5031 8.12207 40.4256V35.0567C8.12207 34.9792 8.13733 34.9025 8.16698 34.8309C8.19664 34.7593 8.2401 34.6943 8.29489 34.6395C8.34968 34.5847 8.41472 34.5412 8.48631 34.5116C8.5579 34.4819 8.63462 34.4666 8.71211 34.4666H14.0811C14.2376 34.4666 14.3877 34.5288 14.4984 34.6395C14.609 34.7501 14.6712 34.9002 14.6712 35.0567V40.4256C14.6712 40.5031 14.6559 40.5798 14.6263 40.6514C14.5966 40.723 14.5532 40.7881 14.4984 40.8429C14.4436 40.8977 14.3785 40.9412 14.307 40.9708C14.2354 41.0005 14.1586 41.0157 14.0811 41.0157Z" stroke="black" stroke-width="1.46484" stroke-miterlimit="10"/>
<path d="M41.6588 28.6134H36.2897C36.1332 28.6134 35.9832 28.5512 35.8725 28.4406C35.7619 28.3299 35.6997 28.1798 35.6997 28.0233V22.6544C35.6997 22.4979 35.7619 22.3478 35.8726 22.2372C35.9832 22.1265 36.1333 22.0644 36.2897 22.0643H41.6588C41.7363 22.0643 41.813 22.0796 41.8846 22.1092C41.9562 22.1389 42.0213 22.1823 42.0761 22.2371C42.1309 22.2919 42.1743 22.357 42.204 22.4285C42.2336 22.5001 42.2489 22.5769 42.2489 22.6544V28.0233C42.2489 28.1008 42.2337 28.1775 42.204 28.2491C42.1744 28.3208 42.1309 28.3858 42.0761 28.4406C42.0213 28.4954 41.9562 28.5389 41.8846 28.5685C41.813 28.5982 41.7363 28.6134 41.6588 28.6134Z" stroke="black" stroke-width="1.46484" stroke-miterlimit="10"/>
<path d="M9 26.461L10.2836 27.7445C10.3646 27.8255 10.4607 27.8898 10.5665 27.9336C10.6723 27.9774 10.7858 28 10.9003 28C11.0148 28 11.1282 27.9774 11.234 27.9336C11.3399 27.8898 11.436 27.8255 11.517 27.7445L14.7009 24.5607" stroke="black" stroke-width="1.46484" stroke-miterlimit="10" stroke-linecap="round"/>
</g>
</g>
<defs>
<clipPath id="clip0_32_81">
<rect width="50" height="50" fill="white"/>
</clipPath>
</defs>
</svg>
